<?xml version="1.0" encoding="UTF-8" standalone="no"?>
<svg
   xmlns:dc="http://purl.org/dc/elements/1.1/"
   xmlns:cc="http://creativecommons.org/ns#"
   xmlns:rdf="http://www.w3.org/1999/02/22-rdf-syntax-ns#"
   xmlns:svg="http://www.w3.org/2000/svg"
   xmlns="http://www.w3.org/2000/svg"
   xmlns:sodipodi="http://sodipodi.sourceforge.net/DTD/sodipodi-0.dtd"
   xmlns:inkscape="http://www.inkscape.org/namespaces/inkscape"
   width="81"
   height="79"
   viewBox="0 0 81 79"
   fill="none"
   version="1.1"
   id="svg6"
   sodipodi:docname="Group 10.svg"
   inkscape:version="0.92.5 (2060ec1f9f, 2020-04-08)">
  <metadata
     id="metadata12">
    <rdf:RDF>
      <cc:Work
         rdf:about="">
        <dc:format>image/svg+xml</dc:format>
        <dc:type
           rdf:resource="http://purl.org/dc/dcmitype/StillImage" />
      </cc:Work>
    </rdf:RDF>
  </metadata>
  <defs
     id="defs10" />
  <sodipodi:namedview
     pagecolor="#ffffff"
     bordercolor="#666666"
     borderopacity="1"
     objecttolerance="10"
     gridtolerance="10"
     guidetolerance="10"
     inkscape:pageopacity="0"
     inkscape:pageshadow="2"
     inkscape:window-width="1920"
     inkscape:window-height="1012"
     id="namedview8"
     showgrid="false"
     inkscape:zoom="8.4494785"
     inkscape:cx="36.477029"
     inkscape:cy="39.407975"
     inkscape:window-x="0"
     inkscape:window-y="0"
     inkscape:window-maximized="1"
     inkscape:current-layer="svg6" />
  <rect
     width="25.1624"
     height="6.2906"
     transform="matrix(-0.72074 0.693205 0.72074 0.693205 18.1355 57.1965)"
     fill="white"
     id="rect2"
     style="fill:#ffffff;fill-opacity:1" />
  <path
     fill-rule="evenodd"
     clip-rule="evenodd"
     d="M44.2696 65.7708C28.0411 65.7708 14.8853 52.6834 14.8853 36.5393C14.8853 20.3952 28.0411 7.30786 44.2696 7.30786C60.4981 7.30786 73.6539 20.3952 73.6539 36.5393C73.6539 52.6834 60.4981 65.7708 44.2696 65.7708ZM44.2696 73.0786C23.984 73.0786 7.53923 56.7194 7.53923 36.5393C7.53923 16.3592 23.984 0 44.2696 0C64.5552 0 81 16.3592 81 36.5393C81 56.7194 64.5552 73.0786 44.2696 73.0786Z"
     fill="white"
     id="path4"
     style="fill:#ffffff;fill-opacity:1" />
  <path
     inkscape:connector-curvature="0"
     d="M 41.271865,24.03935 V 49.0393 h 5.9954 l 10e-5,-25 z"
     id="path2"
     style="fill:#ffffff;fill-opacity:1" />
  <path
     inkscape:connector-curvature="0"
     d="M 56.769594,33.54155 H 31.769637 v 5.9954 l 24.999956,1e-4 z"
     id="path4-3"
     style="fill:#ffffff;fill-opacity:1" />
</svg>
